<?xml version="1.0" encoding="utf-8"?><svg width="275" height="263" viewBox="0 0 275 263" xmlns="http://www.w3.org/2000/svg" xmlns:xlink="http://www.w3.org/1999/xlink"><svg width="5" height="9" fill="none" viewBox="0 0 5 9" id="arrow-right" xmlns="http://www.w3.org/2000/svg"><path d="M4.817 4.99L1.083 8.809a.622.622 0 01-.897 0 .656.656 0 010-.915l3.319-3.392-3.32-3.396a.656.656 0 010-.915.622.622 0 01.898 0l3.734 3.82A.647.647 0 015 4.5a.634.634 0 01-.182.489z" fill="#ADB4BF"/></svg><svg width="18" height="18" fill="none" viewBox="0 0 18 18" id="comments" x="5" y="9" xmlns="http://www.w3.org/2000/svg"><path d="M.558 17.998A.56.56 0 010 17.44c0-.216.126-.396.306-.504a9.415 9.415 0 003.078-2.754 8.297 8.297 0 01-2.25-5.741C1.134 3.78 4.896 0 9.558 0a8.442 8.442 0 010 16.882 8.79 8.79 0 01-1.674-.162 19.887 19.887 0 01-7.326 1.278zm9-16.864A7.313 7.313 0 002.25 8.44c0 1.998.81 3.888 2.25 5.255.198.18.234.468.09.702a9.183 9.183 0 01-2.088 2.394 17.316 17.316 0 005.13-1.188.72.72 0 01.342-.036c3.942.882 7.848-1.584 8.73-5.525a7.326 7.326 0 00-5.526-8.747 8.242 8.242 0 00-1.62-.162z" fill="#fff"/></svg><svg width="30" height="30" fill="none" viewBox="0 0 30 30" id="fb" x="23" y="27" xmlns="http://www.w3.org/2000/svg"><circle cx="15" cy="15" r="15" fill="#365C98"/><path d="M16.28 23h-3.007v-8h-2.006v-2.757h2.006l-.003-1.625c0-2.25.611-3.618 3.27-3.618h2.212v2.758h-1.383c-1.035 0-1.085.385-1.085 1.104l-.004 1.38h2.487L18.474 15h-2.192l-.002 8z" fill="#fff"/></svg><svg width="30" height="30" fill="none" viewBox="0 0 30 30" id="ok" x="53" y="57" xmlns="http://www.w3.org/2000/svg"><circle cx="15" cy="15" r="15" fill="#ED8100"/><path d="M14.353 18.27c-1.282-.13-2.439-.435-3.43-1.184-.122-.093-.249-.183-.361-.287-.433-.402-.477-.863-.134-1.338.293-.407.786-.516 1.298-.282.099.045.193.101.284.162 1.845 1.226 4.38 1.26 6.232.055.184-.136.38-.247.607-.303.443-.11.855.047 1.092.42.271.428.268.845-.066 1.176-.512.509-1.129.877-1.813 1.134-.647.242-1.356.364-2.058.445.106.112.156.167.222.23.953.927 1.91 1.848 2.86 2.777.323.316.39.709.212 1.077-.194.402-.63.666-1.058.638-.27-.018-.482-.148-.67-.331-.719-.7-1.451-1.387-2.156-2.1-.205-.207-.303-.168-.484.012-.723.72-1.459 1.43-2.198 2.134-.332.317-.727.374-1.112.193-.41-.192-.67-.596-.65-1.002.014-.274.154-.484.349-.672.942-.91 1.883-1.823 2.823-2.736.063-.06.12-.125.211-.218z" fill="#fff"/><path d="M15.135 15.098c-2.289-.007-4.165-1.841-4.152-4.058.013-2.24 1.891-4.046 4.202-4.04 2.315.006 4.174 1.838 4.162 4.102-.011 2.211-1.9 4.004-4.212 3.996zm2.08-4.052c-.005-1.1-.91-1.977-2.047-1.978-1.145-.001-2.06.89-2.05 2.001.008 1.097.922 1.966 2.06 1.962 1.136-.003 2.04-.885 2.036-1.985z" fill="#fff"/></svg><svg width="30" height="30" fill="none" viewBox="0 0 30 30" id="telegram" x="83" y="87" xmlns="http://www.w3.org/2000/svg"><circle cx="15" cy="15" r="15" fill="#47A6E2"/><path d="M7.283 14.538l3.686 1.333 1.427 4.446a.44.44 0 00.69.201l2.055-1.623a.629.629 0 01.747-.02l3.707 2.607c.255.18.616.044.68-.254l2.716-12.654c.07-.326-.261-.599-.582-.478L7.279 13.75a.417.417 0 00.004.787zm4.883.624l7.206-4.3c.13-.077.262.093.151.193l-5.946 5.355c-.21.188-.344.44-.382.715l-.203 1.454c-.027.194-.308.213-.364.025l-.779-2.652a.693.693 0 01.317-.79z" fill="#fff"/></svg><svg width="16" height="16" fill="none" viewBox="0 0 16 16" id="time-gray" x="113" y="117" xmlns="http://www.w3.org/2000/svg"><path d="M8 0C3.584 0 0 3.584 0 8s3.584 8 8 8 8-3.584 8-8-3.584-8-8-8zm0 14.864c-3.776 0-6.864-3.088-6.864-6.864S4.224 1.136 8 1.136 14.864 4.208 14.864 8c0 3.776-3.088 6.864-6.864 6.864z" fill="#ADB4BF"/><path d="M7.632 2.848a.574.574 0 00-.576.576V8.56c.016.32.272.576.592.576h3.472c.32 0 .576-.256.576-.576a.574.574 0 00-.576-.576H8.192V3.408c0-.32-.24-.56-.56-.56z" fill="#ADB4BF"/></svg><svg width="16" height="16" fill="none" viewBox="0 0 16 16" id="time1" x="129" y="133" xmlns="http://www.w3.org/2000/svg"><path d="M8 0C3.584 0 0 3.584 0 8s3.584 8 8 8 8-3.584 8-8-3.584-8-8-8zm0 14.864c-3.776 0-6.864-3.088-6.864-6.864S4.224 1.136 8 1.136 14.864 4.208 14.864 8c0 3.776-3.088 6.864-6.864 6.864z" fill="#fff"/><path d="M7.632 2.848a.574.574 0 00-.576.576V8.56c.016.32.272.576.592.576h3.472c.32 0 .576-.256.576-.576a.574.574 0 00-.576-.576H8.192V3.408c0-.32-.24-.56-.56-.56z" fill="#fff"/></svg><svg width="30" height="30" fill="none" viewBox="0 0 30 30" id="tw" x="145" y="149" xmlns="http://www.w3.org/2000/svg"><circle cx="15" cy="15" r="15" fill="#51B4EF"/><path d="M23 10.17a6.449 6.449 0 01-1.885.528 3.355 3.355 0 001.443-1.853 6.535 6.535 0 01-2.086.814A3.242 3.242 0 0018.077 8.6c-1.813 0-3.283 1.5-3.283 3.351 0 .262.03.519.085.764-2.727-.14-5.146-1.475-6.764-3.502a3.38 3.38 0 00-.444 1.684 3.37 3.37 0 001.46 2.79 3.231 3.231 0 01-1.487-.421v.042c0 1.623 1.132 2.978 2.632 3.287a3.258 3.258 0 01-.864.117 3.09 3.09 0 01-.618-.062c.418 1.332 1.63 2.301 3.065 2.328A6.499 6.499 0 017 20.364a9.139 9.139 0 005.031 1.508c6.038 0 9.338-5.107 9.338-9.536l-.01-.434A6.632 6.632 0 0023 10.17z" fill="#fff"/></svg><svg width="20" height="12" fill="none" viewBox="0 0 20 12" id="views" x="175" y="179" xmlns="http://www.w3.org/2000/svg"><path d="M18.602 5.488a19.417 19.417 0 00-2.054-1.922C14.421 1.85 12.194.833 10 .833S5.58 1.851 3.452 3.566a19.407 19.407 0 00-2.366 2.267 19.405 19.405 0 002.366 2.268C5.579 9.816 7.806 10.833 10 10.833s4.42-1.017 6.548-2.732a19.416 19.416 0 002.366-2.268c-.096-.11-.2-.225-.312-.345zM10 11.667c-5.523 0-10-5.834-10-5.834S4.477 0 10 0s10 5.833 10 5.833-4.477 5.834-10 5.834zm0-2.084a3.75 3.75 0 100-7.5 3.75 3.75 0 000 7.5zm0-.833a2.917 2.917 0 110-5.833 2.917 2.917 0 010 5.833z" fill="#fff"/></svg><svg width="20" height="12" fill="none" viewBox="0 0 20 12" id="views-gray" x="195" y="191" xmlns="http://www.w3.org/2000/svg"><path d="M18.602 5.488a19.417 19.417 0 00-2.054-1.922C14.421 1.85 12.194.833 10 .833S5.58 1.851 3.452 3.566a19.407 19.407 0 00-2.366 2.267 19.405 19.405 0 002.366 2.268C5.579 9.816 7.806 10.833 10 10.833s4.42-1.017 6.548-2.732a19.416 19.416 0 002.366-2.268c-.096-.11-.2-.225-.312-.345zM10 11.667c-5.523 0-10-5.834-10-5.834S4.477 0 10 0s10 5.833 10 5.833-4.477 5.834-10 5.834zm0-2.084a3.75 3.75 0 100-7.5 3.75 3.75 0 000 7.5zm0-.833a2.917 2.917 0 110-5.833 2.917 2.917 0 010 5.833z" fill="#ADB4BF"/></svg><svg width="30" height="30" fill="none" viewBox="0 0 30 30" id="vk" x="215" y="203" xmlns="http://www.w3.org/2000/svg"><circle cx="15" cy="15" r="15" fill="#4F7599"/><path fill-rule="evenodd" clip-rule="evenodd" d="M20.77 15.995c.531.522 1.091 1.013 1.567 1.587.21.255.41.518.562.814.216.421.02.885-.355.91l-2.33-.001c-.602.05-1.081-.194-1.485-.607-.322-.331-.621-.683-.932-1.026a2.208 2.208 0 00-.42-.375c-.317-.208-.593-.144-.775.19-.186.34-.227.716-.246 1.095-.025.552-.19.697-.742.723-1.178.056-2.296-.124-3.335-.722-.916-.528-1.626-1.272-2.245-2.115-1.203-1.642-2.125-3.446-2.953-5.3-.187-.418-.05-.642.408-.65.76-.015 1.52-.014 2.282-.001.309.005.513.183.633.477a14.268 14.268 0 001.546 2.885c.169.24.34.478.585.646.27.187.476.125.603-.178.08-.192.116-.4.134-.605.06-.708.068-1.415-.037-2.121-.065-.44-.312-.726-.748-.809-.223-.042-.19-.126-.082-.254.187-.22.364-.358.715-.358h2.634c.415.082.507.27.564.69l.002 2.945c-.005.163.08.646.372.753.232.077.386-.11.526-.26.63-.673 1.08-1.47 1.483-2.294.178-.363.332-.74.48-1.116.11-.279.284-.416.596-.41l2.535.002c.075 0 .151.001.224.014.427.073.545.258.413.678-.208.66-.613 1.208-1.008 1.76-.423.589-.875 1.157-1.295 1.75-.385.54-.354.813.124 1.283z" fill="#fff"/></svg><svg width="30" height="30" fill="none" viewBox="0 0 30 30" id="ya" x="245" y="233" xmlns="http://www.w3.org/2000/svg"><path d="M15 30c8.284 0 15-6.716 15-15 0-8.284-6.716-15-15-15C6.716 0 0 6.716 0 15c0 8.284 6.716 15 15 15z" fill="red"/><path d="M20.645 12.213l-8.727 7.464-2.24-2.536 8.726-7.464 2.241 2.536z" fill="#CDCDCD"/><path d="M9.762 5.161l10.883 3.697v3.362L9.762 8.522v-3.36zm-.085 11.974l10.883 3.697v3.361L9.677 20.497v-3.36z" fill="#fff"/></svg></svg>